<?xml version="1.0" encoding="utf-8"?>
<!-- Generator: Adobe Illustrator 16.0.4, SVG Export Plug-In . SVG Version: 6.00 Build 0)  -->
<!DOCTYPE svg PUBLIC "-//W3C//DTD SVG 1.1//EN" "http://www.w3.org/Graphics/SVG/1.1/DTD/svg11.dtd">
<svg version="1.1" id="Layer_1" xmlns="http://www.w3.org/2000/svg" xmlns:xlink="http://www.w3.org/1999/xlink" x="0px" y="0px"
	 width="64px" height="64px" viewBox="0 0 64 64" enable-background="new 0 0 64 64" xml:space="preserve">
<g>
	<g>
		<path fill="#606060" d="M43.43,36.947c-4.188,0-6.004,1.758-6.004,7.539c0,5.334,1.928,7.625,6.004,7.625
			c4.301,0,6.004-1.844,6.004-7.625C49.434,39.209,47.786,36.947,43.43,36.947z M32.082-0.002C14.408-0.002,0.081,14.326,0.081,32
			s14.328,32.002,32.001,32.002S64.084,49.674,64.084,32S49.756-0.002,32.082-0.002z M13.226,23.373h3.882
			c0.028,3.379,2.569,4.915,4.803,4.915c1.788,0,3.351-0.978,3.351-2.876c0-2.178-1.508-3.128-4.859-4.049
			c-3.575-0.866-6.982-2.095-6.982-6.256c0-3.63,3.072-5.474,6.228-5.474c2.625,0,4.943,1.312,5.362,3.77h0.167
			c0-1.145-0.028-2.29-0.056-3.435h3.239v6.535h-3.826c-0.083-3.072-2.066-4.552-4.189-4.552c-1.592,0-2.96,1.033-2.96,2.486
			c0,1.759,0.949,2.569,4.691,3.574c4.664,1.257,7.261,2.96,7.261,6.563c0,4.021-3.519,5.809-6.758,5.809
			c-2.765,0-5.418-1.201-5.977-3.882H16.38l0.056,3.547h-3.211L13.226,23.373L13.226,23.373z M22.427,54.902
			c-7.038,0-11.031-4.16-11.031-10.248c0-7.094,4.943-10.611,9.3-10.611c3.1,0,5.334,1.367,6.116,3.824h0.224l-0.083-3.574h3.155
			v7.037H26.7c-0.14-2.791-2.485-4.355-5.306-4.355c-2.988,0-6.032,2.43-6.032,7.121c0,4.664,3.184,7.428,7.01,7.428
			c2.234,0,4.329-1.145,5.501-3.184l2.43,2.15C28.962,53.145,26.03,54.902,22.427,54.902z M43.43,54.875
			c-6.088,0-10.443-4.385-10.443-10.389c0-5.92,4.384-10.443,10.443-10.443c6.172,0,10.473,4.439,10.473,10.443
			S49.488,54.875,43.43,54.875z M54.027,20.468h-2.541c-0.56,2.625-1.844,4.692-3.491,6.284c0.95,0.614,1.871,1.005,2.569,1.005
			c1.006,0,1.955-0.559,1.955-1.787v-1.788h1.508v2.43c0,2.849-2.039,3.882-4.049,3.882c-1.285,0-2.934-0.614-4.637-1.787
			c-1.871,1.173-4.217,1.843-6.256,1.843c-3.714,0-6.423-1.871-6.423-5.166c0-2.933,1.927-4.636,4.468-6.088
			c-0.754-1.536-1.201-3.127-1.201-4.552c0-3.295,3.156-5.111,6.256-5.111c2.291,0,4.385,1.089,4.385,3.435
			c0,2.932-2.959,4.301-5.725,5.948c1.452,2.514,3.631,5.027,5.78,6.73c1.425-1.396,2.263-3.239,2.347-5.278h-3.129v-2.82h8.184
			V20.468z M38.081,20.971c-1.005,0.978-1.703,2.178-1.703,3.826c0,2.905,1.647,4.021,3.798,4.021c1.229,0,2.598-0.391,3.826-1.117
			C41.852,26.053,39.673,23.596,38.081,20.971z M44.002,13.319c0-1.34-0.949-2.066-2.066-2.066c-1.312,0-2.681,1.033-2.681,3.184
			c0,0.949,0.335,2.066,0.921,3.239C42.41,16.391,44.002,15.19,44.002,13.319z"/>
	</g>
</g>
</svg>
