<?xml version="1.0" encoding="utf-8"?>
<!-- Generator: Adobe Illustrator 16.0.4, SVG Export Plug-In . SVG Version: 6.00 Build 0)  -->
<!DOCTYPE svg PUBLIC "-//W3C//DTD SVG 1.1//EN" "http://www.w3.org/Graphics/SVG/1.1/DTD/svg11.dtd">
<svg version="1.1" id="Layer_1" xmlns="http://www.w3.org/2000/svg" xmlns:xlink="http://www.w3.org/1999/xlink" x="0px" y="0px"
	 width="128px" height="128px" viewBox="0 0 128 128" enable-background="new 0 0 128 128" xml:space="preserve">
<g>
	<g>
		<path fill="#606060" d="M87.84,26.639c0-2.681-1.899-4.133-4.133-4.133c-2.625,0-5.362,2.066-5.362,6.367
			c0,1.899,0.67,4.133,1.844,6.479C84.656,32.782,87.84,30.381,87.84,26.639z M64-0.003C28.652-0.003-0.003,28.652-0.003,64
			c0,35.348,28.655,64.003,64.003,64.003c35.348,0,64.003-28.655,64.003-64.003C128.003,28.652,99.348-0.003,64-0.003z
			 M26.287,46.746h7.764c0.056,6.758,5.138,9.83,9.606,9.83c3.575,0,6.703-1.955,6.703-5.752c0-4.357-3.016-6.256-9.719-8.099
			c-7.149-1.731-13.963-4.189-13.963-12.511c0-7.261,6.144-10.947,12.455-10.947c5.25,0,9.886,2.625,10.724,7.54h0.335
			c0-2.29-0.056-4.58-0.112-6.87h6.479v13.07h-7.652c-0.167-6.144-4.133-9.104-8.378-9.104c-3.184,0-5.921,2.066-5.921,4.971
			c0,3.519,1.899,5.139,9.384,7.149c9.327,2.513,14.521,5.92,14.521,13.125c0,8.043-7.038,11.618-13.516,11.618
			c-5.53,0-10.836-2.402-11.953-7.764h-0.447l0.111,7.093h-6.423V46.746z M44.69,109.808c-14.075,0-22.062-8.322-22.062-20.498
			c0-14.187,9.886-21.225,18.599-21.225c6.2,0,10.668,2.737,12.232,7.652h0.447l-0.167-7.149h6.312v14.075h-6.814
			c-0.279-5.586-4.971-8.713-10.612-8.713c-5.977,0-12.064,4.858-12.064,14.242c0,9.327,6.367,14.857,14.019,14.857
			c4.468,0,8.658-2.29,11.003-6.368l4.859,4.301C57.76,106.289,51.896,109.808,44.69,109.808z M86.695,109.752
			c-12.176,0-20.89-8.77-20.89-20.777c0-11.841,8.77-20.89,20.89-20.89c12.344,0,20.944,8.881,20.944,20.89
			C107.64,100.982,98.815,109.752,86.695,109.752z M107.892,40.937h-5.083c-1.117,5.25-3.687,9.383-6.981,12.567
			c1.898,1.229,3.742,2.011,5.139,2.011c2.011,0,3.909-1.117,3.909-3.575v-3.575h3.017v4.859c0,5.697-4.078,7.764-8.099,7.764
			c-2.569,0-5.865-1.229-9.272-3.575C86.778,59.759,82.087,61.1,78.01,61.1c-7.429,0-12.847-3.742-12.847-10.333
			c0-5.865,3.854-9.271,8.937-12.176c-1.508-3.072-2.401-6.256-2.401-9.104c0-6.59,6.312-10.221,12.511-10.221
			c4.58,0,8.77,2.178,8.77,6.87c0,5.865-5.921,8.602-11.45,11.897c2.904,5.027,7.261,10.054,11.562,13.46
			c2.849-2.792,4.524-6.479,4.692-10.556h-6.256v-5.641h16.365V40.937z M75.999,41.942c-2.011,1.955-3.407,4.356-3.407,7.652
			c0,5.809,3.296,8.043,7.597,8.043c2.457,0,5.194-0.782,7.651-2.234C83.539,52.107,79.183,47.192,75.999,41.942z M86.695,73.894
			c-8.378,0-12.009,3.52-12.009,15.081c0,10.668,3.854,15.248,12.009,15.248c8.602,0,12.008-3.687,12.008-15.248
			C98.703,78.418,95.408,73.894,86.695,73.894z"/>
	</g>
</g>
</svg>
