<svg xmlns="http://www.w3.org/2000/svg" width="128" height="128"><path fill="#606060" d="M87.84 26.639c0-2.681-1.899-4.133-4.133-4.133-2.625 0-5.362 2.066-5.362 6.367 0 1.899.67 4.133 1.844 6.479 4.467-2.57 7.651-4.971 7.651-8.713zm-23.84-26.642c-35.348 0-64.003 28.655-64.003 64.003s28.655 64.003 64.003 64.003 64.003-28.655 64.003-64.003-28.655-64.003-64.003-64.003zm-37.713 46.749h7.764c.056 6.758 5.138 9.83 9.606 9.83 3.575 0 6.703-1.955 6.703-5.752 0-4.357-3.016-6.256-9.719-8.099-7.149-1.731-13.963-4.189-13.963-12.511 0-7.261 6.144-10.947 12.455-10.947 5.25 0 9.886 2.625 10.724 7.54h.335c0-2.29-.056-4.58-.112-6.87h6.479v13.07h-7.652c-.167-6.144-4.133-9.104-8.378-9.104-3.184 0-5.921 2.066-5.921 4.971 0 3.519 1.899 5.139 9.384 7.149 9.327 2.513 14.521 5.92 14.521 13.125 0 8.043-7.038 11.618-13.516 11.618-5.53 0-10.836-2.402-11.953-7.764h-.447l.111 7.093h-6.423v-13.349zm18.403 63.062c-14.075 0-22.062-8.322-22.062-20.498 0-14.187 9.886-21.225 18.599-21.225 6.2 0 10.668 2.737 12.232 7.652h.447l-.167-7.149h6.312v14.075h-6.814c-.279-5.586-4.971-8.713-10.612-8.713-5.977 0-12.064 4.858-12.064 14.242 0 9.327 6.367 14.857 14.019 14.857 4.468 0 8.658-2.29 11.003-6.368l4.859 4.301c-2.682 5.307-8.546 8.826-15.752 8.826zm42.005-.056c-12.176 0-20.89-8.77-20.89-20.777 0-11.841 8.77-20.89 20.89-20.89 12.344 0 20.944 8.881 20.944 20.89.001 12.007-8.824 20.777-20.944 20.777zm21.197-68.815h-5.083c-1.117 5.25-3.687 9.383-6.981 12.567 1.898 1.229 3.742 2.011 5.139 2.011 2.011 0 3.909-1.117 3.909-3.575v-3.575h3.017v4.859c0 5.697-4.078 7.764-8.099 7.764-2.569 0-5.865-1.229-9.272-3.575-3.744 2.346-8.435 3.687-12.512 3.687-7.429 0-12.847-3.742-12.847-10.333 0-5.865 3.854-9.271 8.937-12.176-1.508-3.072-2.401-6.256-2.401-9.104 0-6.59 6.312-10.221 12.511-10.221 4.58 0 8.77 2.178 8.77 6.87 0 5.865-5.921 8.602-11.45 11.897 2.904 5.027 7.261 10.054 11.562 13.46 2.849-2.792 4.524-6.479 4.692-10.556h-6.256v-5.641h16.365v5.641zm-31.893 1.005c-2.011 1.955-3.407 4.356-3.407 7.652 0 5.809 3.296 8.043 7.597 8.043 2.457 0 5.194-.782 7.651-2.234-4.301-3.296-8.657-8.211-11.841-13.461zm10.696 31.952c-8.378 0-12.009 3.52-12.009 15.081 0 10.668 3.854 15.248 12.009 15.248 8.602 0 12.008-3.687 12.008-15.248 0-10.557-3.295-15.081-12.008-15.081z"/></svg>